<svg width="254" height="116" viewBox="0 0 254 116" fill="none" xmlns="http://www.w3.org/2000/svg">
<path fill-rule="evenodd" clip-rule="evenodd" d="M85.1941 46.5067H75.2881V83.7981H85.1941C87.678 83.7981 90.0389 83.3314 92.271 82.3969L92.2796 82.3931C94.5074 81.4228 96.4768 80.0595 98.1837 78.3065C99.8538 76.5898 101.153 74.6118 102.081 72.3759C103.047 70.096 103.53 67.6865 103.53 65.1524C103.53 62.6194 103.047 60.2273 102.08 57.9826C101.155 55.7131 99.857 53.7007 98.1885 51.9494L98.1783 51.9391C96.4709 50.223 94.502 48.8969 92.2753 47.9636C90.0427 46.9918 87.6801 46.5067 85.1941 46.5067ZM11.9875 46.5606H5.9205V83.7981H11.9875V68.3094H25.1417V83.7981H31.155V46.5606H25.1417V62.1034H11.9875V46.5606ZM112.969 46.5606H107.009V83.7981H123.707V77.5915H112.969V46.5606ZM53.1907 46.6146C50.6687 46.6146 48.2703 47.0998 46.0015 48.0718L45.9978 48.0734C43.7731 49.0424 41.8055 50.3856 40.0989 52.101C38.3561 53.8528 37.001 55.8675 36.0367 58.142L36.0346 58.1469C35.1041 60.3915 34.6407 62.7825 34.6407 65.314C34.6407 67.8491 35.1234 70.2765 36.0889 72.5905L36.0904 72.5943C37.0536 74.8655 38.3893 76.8625 40.0964 78.5792C41.8028 80.3305 43.7711 81.6933 45.9978 82.663L46.0102 82.6684C48.2769 83.6018 50.6723 84.0675 53.1907 84.0675C55.7128 84.0675 58.111 83.5823 60.3797 82.6104C62.6409 81.6418 64.6276 80.2986 66.3361 78.5813C68.0445 76.8641 69.3814 74.8666 70.3445 72.5943L70.3461 72.5905C71.312 70.2765 71.7946 67.8491 71.7946 65.314C71.7946 62.7793 71.312 60.3682 70.3445 58.0878C69.3814 55.8155 68.0445 53.8182 66.3361 52.101C64.6276 50.3838 62.6409 49.0404 60.3797 48.0718C58.111 47.0998 55.7128 46.6146 53.1907 46.6146ZM81.4623 77.5915V52.7129H85.1941C86.8205 52.7129 88.3769 53.0359 89.8675 53.683L89.8723 53.6852C91.4055 54.3357 92.7272 55.2225 93.8435 56.3435C94.9604 57.5013 95.8243 58.8467 96.4364 60.384L96.4434 60.4008C97.0862 61.8974 97.4087 63.4791 97.4087 65.1524C97.4087 66.8252 97.0862 68.427 96.4413 69.9626L96.4386 69.9697C95.827 71.4717 94.9631 72.8008 93.8435 73.9614C92.7267 75.0823 91.4055 75.9686 89.8723 76.6196L89.8675 76.6218C88.3769 77.2685 86.8205 77.5915 85.1941 77.5915H81.4623ZM48.4049 53.8471C49.9327 53.1987 51.5262 52.8748 53.1907 52.8748C54.8554 52.8748 56.429 53.1988 57.9179 53.8451L57.9346 53.852C59.4619 54.4658 60.7987 55.351 61.9512 56.5088C63.1031 57.6672 63.9832 59.0109 64.5942 60.546L64.6012 60.5628C65.244 62.0594 65.5665 63.6412 65.5665 65.314C65.5665 67.0241 65.244 68.6628 64.598 70.2353C63.9503 71.7769 63.0675 73.1055 61.9512 74.2275C60.7971 75.387 59.4576 76.2917 57.9265 76.9416C56.436 77.5541 54.8591 77.8615 53.1907 77.8615C51.5243 77.8615 49.9295 77.5547 48.4015 76.9416C46.9081 76.2922 45.5857 75.3886 44.4305 74.2275C43.314 73.1049 42.4313 71.7763 41.7834 70.2347C41.1377 68.6628 40.8151 67.0241 40.8151 65.314C40.8151 63.6374 41.1208 62.0524 41.7301 60.5542C42.377 59.0153 43.2767 57.6688 44.4305 56.5088C45.5853 55.3482 46.9065 54.4631 48.3979 53.85L48.4049 53.8471Z" fill="#474C57"/>
<path fill-rule="evenodd" clip-rule="evenodd" d="M180.816 59.0174H176.838V83.9141H180.816V59.0174ZM254 59.0174H250.022V83.9141H254V59.0174ZM210.372 59.0532H206.105V83.9141H210.372V81.935C210.96 82.4543 211.605 82.8917 212.308 83.2473L212.313 83.2495C213.447 83.81 214.627 84.0929 215.849 84.0929C217.152 84.0929 218.407 83.8398 219.608 83.3346C220.806 82.831 221.845 82.1356 222.719 81.2466C223.612 80.3392 224.302 79.3033 224.789 78.1412C225.301 76.9514 225.556 75.697 225.556 74.3842C225.556 73.0724 225.301 71.83 224.788 70.6624C224.303 69.478 223.613 68.4302 222.719 67.5217C221.845 66.6328 220.806 65.9368 219.608 65.4332C218.407 64.928 217.152 64.6754 215.849 64.6754C214.395 64.6754 213.086 64.9784 211.934 65.5991L211.929 65.6018C211.34 65.9265 210.819 66.2821 210.372 66.6702V59.0532ZM193.42 64.8185C192.118 64.8185 190.876 65.0711 189.698 65.5763C188.524 66.056 187.487 66.739 186.591 67.6237C185.695 68.5094 184.992 69.5469 184.482 70.7313C183.969 71.9222 183.712 73.1776 183.712 74.4915C183.712 75.7832 183.969 77.0159 184.483 78.184C184.994 79.3445 185.697 80.3679 186.591 81.252C187.486 82.1356 188.521 82.83 189.693 83.333C190.873 83.8398 192.117 84.0929 193.42 84.0929C194.746 84.0929 196.013 83.8404 197.216 83.3346C198.412 82.8316 199.461 82.1377 200.357 81.252C201.253 80.3674 201.945 79.3418 202.432 78.1797C202.944 77.0126 203.201 75.7816 203.201 74.4915C203.201 73.1792 202.945 71.9254 202.434 70.7361C201.947 69.5496 201.255 68.5105 200.357 67.6237C199.461 66.7374 198.41 66.0544 197.212 65.5747C196.01 65.0706 194.745 64.8185 193.42 64.8185ZM163.33 64.9258C162.03 64.9258 160.789 65.1654 159.612 65.6462L159.608 65.6479C158.46 66.1265 157.437 66.7959 156.543 67.654L156.54 67.6567L156.537 67.6594C155.643 68.5435 154.939 69.5669 154.429 70.7275L154.427 70.7329C153.937 71.8772 153.694 73.0963 153.694 74.3842C153.694 75.6499 153.938 76.8776 154.423 78.0637L154.426 78.0685L154.427 78.0729C154.935 79.2513 155.621 80.3061 156.485 81.2358C157.354 82.1703 158.377 82.9145 159.549 83.4685L159.555 83.4717L159.562 83.4745C160.765 84.0057 162.022 84.2718 163.33 84.2718C165.353 84.2718 167.141 83.6083 168.68 82.3025C168.633 82.8576 168.498 83.391 168.273 83.9054L168.269 83.9124L168.266 83.9195C168.002 84.5716 167.63 85.1451 167.147 85.6438C166.667 86.1398 166.099 86.5289 165.438 86.8119C164.781 87.0932 164.092 87.2342 163.366 87.2342C161.779 87.2342 160.387 86.5664 159.17 85.1641L158.877 84.8258L155.078 87.0591L155.487 87.5507C157.675 90.1851 160.307 91.5408 163.366 91.5408C164.669 91.5408 165.912 91.2882 167.091 90.7819C168.288 90.2784 169.326 89.5834 170.2 88.6945C171.092 87.7881 171.783 86.7528 172.269 85.5917C172.782 84.4236 173.038 83.1807 173.038 81.8678V65.2484H168.698V66.9103C168.25 66.5292 167.73 66.1769 167.141 65.8522C166.013 65.2305 164.738 64.9258 163.33 64.9258ZM237.054 64.9974C235.732 64.9974 234.479 65.2364 233.3 65.7178L233.296 65.7194C232.145 66.1997 231.12 66.8832 230.225 67.7673C229.329 68.653 228.625 69.69 228.116 70.8744L228.113 70.8798C227.626 72.0457 227.382 73.2751 227.382 74.5631C227.382 75.851 227.626 77.0907 228.111 78.2783L228.114 78.2854L228.117 78.2919C228.628 79.4519 229.332 80.465 230.228 81.3263C231.122 82.2088 232.146 82.8912 233.296 83.3715L233.3 83.3731C234.479 83.8539 235.732 84.0929 237.054 84.0929C238.276 84.0929 239.436 83.8095 240.527 83.2452C241.21 82.8912 241.843 82.4603 242.422 81.9535V83.9141H246.762V65.3557H242.422V66.9558C241.86 66.4788 241.233 66.0815 240.542 65.7639C239.454 65.2522 238.289 64.9974 237.054 64.9974ZM213.735 69.4422C214.42 69.1588 215.123 69.0178 215.849 69.0178C216.574 69.0178 217.263 69.1588 217.92 69.4401L217.927 69.4428L217.934 69.446C218.589 69.7046 219.153 70.0803 219.63 70.5724C220.113 71.0717 220.499 71.6593 220.789 72.3412L220.791 72.3471C221.075 72.9938 221.216 73.6714 221.216 74.3842C221.216 75.8353 220.696 77.0977 219.63 78.1948L219.63 78.1959C219.15 78.6914 218.582 79.0811 217.92 79.364C217.263 79.6454 216.574 79.7863 215.849 79.7863C215.124 79.7863 214.422 79.6459 213.738 79.363C213.078 79.08 212.511 78.6908 212.031 78.1959L212.031 78.1948C210.965 77.0977 210.445 75.8353 210.445 74.3842C210.445 73.6714 210.587 72.9938 210.87 72.3471L210.872 72.3412C211.162 71.6593 211.549 71.0717 212.031 70.5724C212.508 70.0803 213.071 69.7046 213.727 69.446L213.731 69.4444L213.735 69.4422ZM189.631 70.6527C190.69 69.6059 191.944 69.0894 193.42 69.0894C194.172 69.0894 194.873 69.2314 195.528 69.5116L195.538 69.516L195.548 69.5198C196.227 69.7794 196.8 70.1545 197.274 70.6445C197.757 71.1432 198.143 71.7308 198.433 72.4127C198.719 73.087 198.86 73.7787 198.86 74.4915C198.86 75.2043 198.719 75.8819 198.435 76.5291C198.146 77.1871 197.76 77.7655 197.274 78.2675C196.797 78.7602 196.22 79.1494 195.534 79.4334C194.849 79.7169 194.146 79.8579 193.42 79.8579C192.696 79.8579 192.008 79.7175 191.352 79.4372C190.713 79.1537 190.14 78.7618 189.631 78.2588C189.124 77.7579 188.728 77.1823 188.442 76.5291C188.158 75.8819 188.016 75.2043 188.016 74.4915C188.016 73.7787 188.158 73.087 188.444 72.4127C188.731 71.7357 189.126 71.1508 189.631 70.6527ZM161.258 69.6905C161.915 69.4092 162.604 69.2688 163.33 69.2688C164.055 69.2688 164.745 69.4092 165.401 69.6905L165.408 69.6938L165.415 69.6965C166.071 69.9556 166.634 70.3307 167.111 70.8234C167.59 71.3188 167.963 71.9016 168.228 72.5775L168.232 72.5878L168.236 72.5976C168.52 73.2442 168.661 73.9218 168.661 74.6346C168.661 75.348 168.52 76.0396 168.234 76.7139L168.232 76.7177L168.23 76.7221C167.967 77.372 167.597 77.9303 167.12 78.4019C166.639 78.8767 166.068 79.2578 165.401 79.5429C164.745 79.8243 164.055 79.9652 163.33 79.9652C162.604 79.9652 161.915 79.8243 161.258 79.5429C160.592 79.2578 160.021 78.8767 159.541 78.4019C159.061 77.9276 158.676 77.366 158.389 76.7107C158.103 76.0375 157.962 75.3469 157.962 74.6346C157.962 73.9218 158.104 73.2442 158.388 72.5976L158.39 72.5916C158.679 71.9097 159.066 71.3221 159.549 70.8234C160.026 70.3307 160.589 69.9556 161.244 69.6965L161.251 69.6938L161.258 69.6905ZM234.94 69.6932C235.625 69.4092 236.328 69.2688 237.054 69.2688C237.78 69.2688 238.469 69.4092 239.126 69.6905L239.133 69.6938L239.14 69.6965C239.8 69.9577 240.367 70.3242 240.844 70.7963C241.318 71.2646 241.688 71.8322 241.952 72.506L241.956 72.5163L241.961 72.526C242.244 73.1727 242.386 73.8503 242.386 74.5631C242.386 75.2764 242.244 75.9534 241.961 76.6006L241.957 76.6077L241.954 76.6147C241.692 77.2647 241.321 77.823 240.844 78.2946C240.365 78.7678 239.796 79.1478 239.133 79.4329C238.475 79.692 237.783 79.8221 237.054 79.8221C236.326 79.8221 235.621 79.692 234.937 79.4313C234.274 79.1467 233.707 78.7672 233.229 78.2946C232.75 77.8214 232.366 77.2609 232.079 76.6077C231.817 75.9599 231.686 75.2797 231.686 74.5631C231.686 73.8454 231.818 73.1646 232.08 72.5157C232.368 71.8376 232.752 71.2668 233.229 70.7963C233.706 70.3242 234.272 69.9577 234.932 69.6965L234.937 69.6948L234.94 69.6932Z" fill="#474C57"/>
<path fill-rule="evenodd" clip-rule="evenodd" d="M141.447 88.2202V99.0613L107.12 115.661L78.657 107.395L0.269653 115.662L78.657 100.348L107.12 109.256L136.129 95.6057V88.2202H141.447Z" fill="#474C57"/>
<path d="M217.599 17.0068L251.304 0.338531L246.315 34.6236L237.282 24.0535L218.812 45.4647L170.133 44.1803L141.346 63.0146V72.5683H135.561V59.7622L168.133 39.3062L215.576 40.1796L232.429 21.2077L217.599 17.0068Z" fill="#2EC581"/>
<path d="M143.448 80.4286C143.448 83.2728 141.154 85.5782 138.325 85.5782C135.495 85.5782 133.202 83.2728 133.202 80.4286C133.202 77.5845 135.495 75.2791 138.325 75.2791C141.154 75.2791 143.448 77.5845 143.448 80.4286Z" fill="#2EC581"/>
<path fill-rule="evenodd" clip-rule="evenodd" d="M149.38 80.4286C149.38 86.5658 144.431 91.5408 138.325 91.5408C132.219 91.5408 127.27 86.5658 127.27 80.4286C127.27 74.2915 132.219 69.3165 138.325 69.3165C144.431 69.3165 149.38 74.2915 149.38 80.4286ZM138.325 85.5782C141.154 85.5782 143.448 83.2728 143.448 80.4286C143.448 77.5845 141.154 75.2791 138.325 75.2791C135.495 75.2791 133.202 77.5845 133.202 80.4286C133.202 83.2728 135.495 85.5782 138.325 85.5782Z" fill="#F8FAFC"/>
</svg>
