<svg width="18" height="18" viewBox="0 0 18 18" fill="none" xmlns="http://www.w3.org/2000/svg">
<g clip-path="url(#clip0_42_5)">
<path d="M2.46674 9.0159e-07H8.76745C9.97996 -0.000534954 11.1807 0.237797 12.3011 0.701381C13.4214 1.16496 14.4395 1.84472 15.297 2.70181C16.1546 3.55889 16.8349 4.57652 17.299 5.69656C17.7632 6.8166 18.002 8.01709 18.002 9.22946V15.5315C18.0024 15.8556 17.9388 16.1766 17.815 16.4761C17.6912 16.7756 17.5095 17.0478 17.2804 17.277C17.0513 17.5063 16.7793 17.6881 16.4798 17.8122C16.1804 17.9363 15.8594 18.0001 15.5353 18H9.27437C8.05727 18.0009 6.85191 17.762 5.72713 17.2971C4.60235 16.8322 3.58018 16.1503 2.71896 15.2904C1.85775 14.4304 1.17438 13.4093 0.707855 12.2853C0.241333 11.1613 0.000803839 9.9564 4.74617e-07 8.73944V2.46748C-0.000200551 2.14348 0.0634589 1.82261 0.18734 1.52321C0.311222 1.22382 0.492897 0.951775 0.721981 0.722621C0.951066 0.493468 1.22307 0.311701 1.52244 0.18771C1.82182 0.0637187 2.1427 -6.61593e-05 2.46674 9.0159e-07V9.0159e-07Z" fill="white"/>
<path d="M17.2529 17.2942C13.3455 10.8892 7.19624 6.16531 0 4.04053L0 8.73175C0.00673498 11.1886 0.986177 13.5429 2.72415 15.2797C4.46211 17.0165 6.81719 17.9946 9.27437 18H15.5419C16.1826 17.9973 16.7967 17.744 17.2529 17.2942Z" fill="white"/>
<path d="M5.31596 3.39697C4.79564 3.39697 4.29663 3.60365 3.92871 3.97152C3.56079 4.3394 3.3541 4.83836 3.3541 5.35862V15.846C4.24103 16.5867 5.25854 17.1551 6.35426 17.5221V13.9068C7.10287 14.318 7.93561 14.5526 8.7888 14.5926C9.64199 14.6327 10.493 14.4771 11.2769 14.1377C12.0607 13.7984 12.7565 13.2844 13.3111 12.6349C13.8658 11.9854 14.2645 11.2177 14.4769 10.3905C14.6893 9.56331 14.7097 8.69849 14.5365 7.8622C14.3633 7.02591 14.0011 6.24029 13.4777 5.56543C12.9542 4.89057 12.2834 4.34433 11.5164 3.96849C10.7494 3.59265 9.90666 3.39716 9.05253 3.39697H5.31596ZM9.05049 11.702C8.36812 11.7022 7.71093 11.4443 7.21083 10.9801C6.71073 10.5159 6.40473 9.87972 6.35426 9.1993V8.80003C6.39307 8.27548 6.58413 7.77365 6.904 7.35607C7.22387 6.9385 7.65866 6.62333 8.15505 6.44922C8.65144 6.27511 9.18786 6.24961 9.69852 6.37587C10.2092 6.50212 10.6719 6.77463 11.03 7.15999C11.388 7.54534 11.6258 8.02679 11.7142 8.5453C11.8026 9.06381 11.7377 9.59684 11.5276 10.079C11.3174 10.5612 10.9711 10.9716 10.5311 11.2599C10.0911 11.5482 9.57654 11.7018 9.05049 11.702V11.702Z" fill="#438A5C"/>
</g>
<defs>
<clipPath id="clip0_42_5">
<rect width="18" height="18" fill="white"/>
</clipPath>
</defs>
</svg>
